<svg width="39" height="35" viewBox="0 0 39 35" fill="none" xmlns="http://www.w3.org/2000/svg">
<path id="icon" d="M19.6719 13.199V20.0863M19.6719 26.9736H19.6891M17.2877 4.40342L3.12584 28.8647C2.34033 30.2215 1.94758 30.8999 2.00562 31.4567C2.05626 31.9423 2.31069 32.3836 2.70561 32.6708C3.15837 33 3.94226 33 5.51002 33H33.8336C35.4015 33 36.1852 33 36.6381 32.6708C37.0329 32.3836 37.2874 31.9423 37.338 31.4567C37.396 30.8999 37.0033 30.2215 36.2178 28.8647L22.056 4.40342C21.2734 3.0515 20.882 2.37554 20.3715 2.14852C19.9261 1.95049 19.4176 1.95049 18.9723 2.14852C18.4616 2.37554 18.0703 3.05151 17.2877 4.40342Z" stroke="#DF8600" stroke-width="2.5" stroke-linecap="round" stroke-linejoin="round"/>
</svg>
