<svg width="130" height="103" viewBox="0 0 130 103" fill="none" xmlns="http://www.w3.org/2000/svg">
<path d="M65 29.3333V51.5M65 73.6667H65.0708M35.25 101.375H94.75C106.651 101.375 112.601 101.375 117.147 99.5629C121.146 97.9691 124.397 95.426 126.434 92.2977C128.75 88.7411 128.75 84.0861 128.75 74.775V28.225C128.75 18.9141 128.75 14.2587 126.434 10.7024C124.397 7.5742 121.146 5.03091 117.147 3.43701C112.601 1.625 106.651 1.625 94.75 1.625H35.25C23.3489 1.625 17.3983 1.625 12.8527 3.43701C8.85424 5.03091 5.60342 7.5742 3.56611 10.7024C1.25 14.2587 1.25 18.9141 1.25 28.225V74.775C1.25 84.0861 1.25 88.7411 3.56611 92.2977C5.60342 95.426 8.85424 97.9691 12.8527 99.5629C17.3983 101.375 23.3489 101.375 35.25 101.375Z" stroke="#018E42" stroke-width="2" stroke-linecap="round" stroke-linejoin="round"/>
</svg>
