<svg width="30" height="38" viewBox="0 0 30 38" fill="none" xmlns="http://www.w3.org/2000/svg">
<path d="M18.3333 2.78255V9.66679C18.3333 10.6002 18.3333 11.0669 18.515 11.4234C18.6748 11.737 18.9296 11.992 19.2433 12.1518C19.5998 12.3335 20.0665 12.3335 21 12.3335H27.8841M21.6666 20.6667H8.33329M21.6666 27.3333H8.33329M11.6666 14H8.33329M18.3333 2.33334H9.66663C6.86636 2.33334 5.46623 2.33334 4.39668 2.8783C3.45586 3.35767 2.69096 4.12257 2.21159 5.06339C1.66663 6.13294 1.66663 7.53307 1.66663 10.3333V27.6667C1.66663 30.467 1.66663 31.867 2.21159 32.9367C2.69096 33.8775 3.45586 34.6423 4.39668 35.1217C5.46623 35.6667 6.86636 35.6667 9.66663 35.6667H20.3333C23.1336 35.6667 24.5336 35.6667 25.6033 35.1217C26.5441 34.6423 27.309 33.8775 27.7883 32.9367C28.3333 31.867 28.3333 30.467 28.3333 27.6667V12.3333L18.3333 2.33334Z" stroke="#DF8600" stroke-width="3" stroke-linecap="round" stroke-linejoin="round"/>
</svg>
