<svg width="30" height="38" viewBox="0 0 30 38" fill="none" xmlns="http://www.w3.org/2000/svg">
<path d="M18.3333 2.78222V9.66646C18.3333 10.5999 18.3333 11.0666 18.515 11.4231C18.6748 11.7367 18.9296 11.9917 19.2433 12.1515C19.5998 12.3331 20.0665 12.3331 21 12.3331H27.8841M21.6666 20.6663H8.33329M21.6666 27.333H8.33329M11.6666 13.9997H8.33329M18.3333 2.33301H9.66663C6.86636 2.33301 5.46623 2.33301 4.39668 2.87797C3.45586 3.35734 2.69096 4.12224 2.21159 5.06306C1.66663 6.13261 1.66663 7.53274 1.66663 10.333V27.6663C1.66663 30.4667 1.66663 31.8667 2.21159 32.9363C2.69096 33.8772 3.45586 34.642 4.39668 35.1213C5.46623 35.6663 6.86636 35.6663 9.66663 35.6663H20.3333C23.1336 35.6663 24.5336 35.6663 25.6033 35.1213C26.5441 34.642 27.309 33.8772 27.7883 32.9363C28.3333 31.8667 28.3333 30.4667 28.3333 27.6663V12.333L18.3333 2.33301Z" stroke="#01B756" stroke-width="3" stroke-linecap="round" stroke-linejoin="round"/>
</svg>
