<svg width="38" height="35" viewBox="0 0 38 35" fill="none" xmlns="http://www.w3.org/2000/svg">
<path d="M17.25 4.49994H9.9C6.95972 4.49994 5.48958 4.49994 4.36655 5.03128C3.37869 5.49866 2.57555 6.24446 2.07222 7.16174C1.5 8.20456 1.5 9.56969 1.5 12.2999V25.95C1.5 28.6801 1.5 30.0453 2.07222 31.0882C2.57555 32.0054 3.37869 32.7512 4.36655 33.2186C5.48958 33.75 6.95972 33.75 9.9 33.75H24.6C27.5403 33.75 29.0103 33.75 30.1335 33.2186C31.1214 32.7512 31.9244 32.0054 32.4277 31.0882C33 30.0453 33 28.6801 33 25.95V19.125M11.9999 24H14.9304C15.7865 24 16.2145 24 16.6174 23.9101C16.9744 23.8305 17.3158 23.6992 17.629 23.5211C17.9822 23.3201 18.2849 23.0389 18.8903 22.4769L35.625 6.93744C37.0747 5.59126 37.0747 3.40864 35.625 2.06244C34.1753 0.716256 31.8247 0.71624 30.375 2.06244L13.6402 17.6019C13.0348 18.1639 12.7322 18.4451 12.5157 18.773C12.3238 19.0639 12.1824 19.3807 12.0967 19.7124C11.9999 20.0865 11.9999 20.484 11.9999 21.2789V24Z" stroke="#D7521D" stroke-width="2" stroke-linecap="round" stroke-linejoin="round"/>
</svg>
