<svg width="75" height="75" viewBox="0 0 75 75" fill="none" xmlns="http://www.w3.org/2000/svg">
<g id="expand action">
<circle id="Ellipse 22" cx="37.5" cy="37.5" r="37.5" fill="#DFE2E0"/>
<path id="expand" d="M58 42.4444V47.3333C58 51.0671 58 52.9338 57.2733 54.36C56.6342 55.6144 55.6144 56.6342 54.36 57.2733C52.9338 58 51.0671 58 47.3333 58H42.4444M33.5556 18H28.6667C24.933 18 23.0661 18 21.6401 18.7266C20.3856 19.3658 19.3658 20.3856 18.7266 21.6401C18 23.0661 18 24.933 18 28.6667V33.5556M44.6667 31.3333L58 18M58 18H44.6667M58 18V31.3333M31.3333 44.6667L18 58M18 58H31.3333M18 58V44.6667" stroke="#018E42" stroke-width="4" stroke-linecap="round" stroke-linejoin="round"/>
</g>
</svg>
