<svg width="54" height="54" viewBox="0 0 54 54" fill="none" xmlns="http://www.w3.org/2000/svg">
<path d="M52 32.5556V38.6667C52 43.3339 52 45.6672 51.0917 47.45C50.2928 49.0181 49.0181 50.2928 47.45 51.0917C45.6672 52 43.3339 52 38.6667 52H32.5556M21.4444 2H15.3333C10.6662 2 8.33267 2 6.55008 2.90828C4.98206 3.70722 3.70722 4.98206 2.90828 6.55008C2 8.33267 2 10.6662 2 15.3333V21.4444M35.3333 18.6667L52 2M52 2H35.3333M52 2V18.6667M18.6667 35.3333L2 52M2 52H18.6667M2 52V35.3333" stroke="black" stroke-width="4" stroke-linecap="round" stroke-linejoin="round"/>
</svg>
