<svg width="46" height="44" viewBox="0 0 46 44" fill="none" xmlns="http://www.w3.org/2000/svg">
<path d="M16.9333 42V26.2133C16.9333 25.0185 16.9333 24.4211 17.1659 23.9648C17.3704 23.5633 17.6967 23.2371 18.0982 23.0325C18.5545 22.8 19.152 22.8 20.3467 22.8H26.32C27.5149 22.8 28.1122 22.8 28.5685 23.0325C28.97 23.2371 29.2962 23.5633 29.5008 23.9648C29.7333 24.4211 29.7333 25.0185 29.7333 26.2133V42M2 17.4667L21.2853 3.00266C22.0198 2.45186 22.387 2.17645 22.7902 2.07027C23.1462 1.97657 23.5204 1.97657 23.8765 2.07029C24.2797 2.17645 24.6468 2.45186 25.3813 3.00266L44.6667 17.4667M6.26667 14.2667V35.1733C6.26667 37.5629 6.26667 38.7578 6.73171 39.6704C7.14078 40.4732 7.79349 41.126 8.59631 41.5349C9.50901 42 10.7038 42 13.0933 42H33.5733C35.9629 42 37.1578 42 38.0704 41.5349C38.8732 41.126 39.526 40.4732 39.9349 39.6704C40.4 38.7578 40.4 37.5629 40.4 35.1733V14.2667L27.4293 4.53866C25.9605 3.43703 25.226 2.88623 24.4194 2.6739C23.7075 2.48648 22.9592 2.48648 22.2473 2.6739C21.4406 2.88623 20.7061 3.43703 19.2373 4.53866L6.26667 14.2667Z" stroke="#01B756" stroke-width="2.4" stroke-linecap="round" stroke-linejoin="round"/>
</svg>
