<svg width="36" height="39" viewBox="0 0 36 39" fill="none" xmlns="http://www.w3.org/2000/svg">
<path d="M1 17.6705C1 16.5603 1 16.0052 1.13831 15.494C1.26082 15.0412 1.46217 14.6153 1.73245 14.2372C2.03757 13.8105 2.46108 13.4697 3.30814 12.7881L15.9798 2.59187C16.6362 2.0637 16.9645 1.79961 17.3269 1.6981C17.6466 1.60853 17.9836 1.60853 18.3033 1.6981C18.6658 1.79961 18.994 2.0637 19.6504 2.59187L32.3221 12.7881C33.1692 13.4697 33.5927 13.8105 33.8978 14.2372C34.168 14.6153 34.3694 15.0412 34.492 15.494C34.6302 16.0052 34.6302 16.5603 34.6302 17.6705V31.6548C34.6302 33.8198 34.6302 34.9022 34.2229 35.7293C33.8648 36.4566 33.293 37.0481 32.59 37.4186C31.7907 37.84 30.7442 37.84 28.6515 37.84H6.97871C4.88595 37.84 3.83959 37.84 3.04027 37.4186C2.33716 37.0481 1.76552 36.4566 1.40728 35.7293C1 34.9022 1 33.8198 1 31.6548V17.6705Z" stroke="#D7521D" stroke-width="2" stroke-linecap="round" stroke-linejoin="round"/>
</svg>
