<svg width="53" height="51" viewBox="0 0 53 51" fill="none" xmlns="http://www.w3.org/2000/svg">
<path d="M37.49 39.0479L51.14 25.3979M51.14 25.3979L37.49 11.748M51.14 25.3979H18.38M26.57 39.0479C26.57 39.8549 26.57 40.2583 26.54 40.6078C26.2282 44.2403 23.5531 47.2294 19.9771 47.9403C19.6332 48.0088 19.2318 48.0533 18.4301 48.1423L15.6417 48.4522C11.4526 48.9176 9.35793 49.1505 7.69386 48.6179C5.4751 47.9078 3.66372 46.2867 2.71302 44.1598C2 42.5647 2 40.4574 2 36.2422V14.5536C2 10.3386 2 8.23116 2.71302 6.63608C3.66372 4.5093 5.4751 2.888 7.69386 2.17801C9.35793 1.6455 11.4525 1.87823 15.6417 2.3437L18.4301 2.65352C19.2321 2.74263 19.6331 2.78719 19.9771 2.8556C23.5531 3.56657 26.2282 6.5556 26.54 10.1881C26.57 10.5376 26.57 10.941 26.57 11.748" stroke="#DF8600" stroke-width="3.2" stroke-linecap="round" stroke-linejoin="round"/>
</svg>
