<svg width="53" height="51" viewBox="0 0 53 51" fill="none" xmlns="http://www.w3.org/2000/svg">
<path d="M37.49 39.0477L51.14 25.3977M51.14 25.3977L37.49 11.7478M51.14 25.3977H18.38M26.57 39.0477C26.57 39.8547 26.57 40.2582 26.54 40.6077C26.2282 44.2402 23.5531 47.2293 19.9771 47.9402C19.6332 48.0087 19.2318 48.0532 18.4301 48.1422L15.6417 48.4521C11.4526 48.9175 9.35793 49.1504 7.69386 48.6178C5.4751 47.9077 3.66372 46.2866 2.71302 44.1597C2 42.5645 2 40.4572 2 36.2421V14.5535C2 10.3385 2 8.23104 2.71302 6.63596C3.66372 4.50918 5.4751 2.88788 7.69386 2.17789C9.35793 1.64538 11.4525 1.87811 15.6417 2.34358L18.4301 2.6534C19.2321 2.74251 19.6331 2.78706 19.9771 2.85548C23.5531 3.56645 26.2282 6.55548 26.54 10.1879C26.57 10.5374 26.57 10.9409 26.57 11.7478" stroke="#01B756" stroke-width="3.2" stroke-linecap="round" stroke-linejoin="round"/>
</svg>
