<svg width="39" height="39" viewBox="0 0 39 39" fill="none" xmlns="http://www.w3.org/2000/svg">
<path id="icon" d="M7.25 23.5012C4.01012 24.9304 2 26.9221 2 29.125C2 33.4743 9.83501 37 19.5 37C29.1649 37 37 33.4743 37 29.125C37 26.9221 34.99 24.9304 31.75 23.5012M30 12.5C30 19.6115 22.125 23 19.5 28.25C16.875 23 9 19.6115 9 12.5C9 6.70101 13.701 2 19.5 2C25.299 2 30 6.70101 30 12.5ZM21.25 12.5C21.25 13.4665 20.4665 14.25 19.5 14.25C18.5335 14.25 17.75 13.4665 17.75 12.5C17.75 11.5335 18.5335 10.75 19.5 10.75C20.4665 10.75 21.25 11.5335 21.25 12.5Z" stroke="#DF8600" stroke-width="2.5" stroke-linecap="round" stroke-linejoin="round"/>
</svg>
