<svg width="45" height="43" viewBox="0 0 45 43" fill="none" xmlns="http://www.w3.org/2000/svg">
<path d="M6.08043 24.6783L9.29306 37.5288C9.3834 37.8901 9.42857 38.0709 9.48202 38.2286C10.0041 39.77 11.3922 40.8537 13.0141 40.9865C13.1802 41 13.3665 41 13.739 41C14.2055 41 14.4387 41 14.6352 40.981C16.5773 40.7925 18.1143 39.2556 18.3027 37.3135C18.3217 37.1171 18.3217 36.8837 18.3217 36.4173V7.33646M35.6636 23.6582C39.6073 23.6582 42.8043 20.4611 42.8043 16.5174C42.8043 12.5737 39.6073 9.37667 35.6636 9.37667M18.8318 7.33646H11.181C6.11046 7.33646 2 11.4469 2 16.5174C2 21.588 6.11046 25.6984 11.181 25.6984H18.8318C22.4356 25.6984 26.8441 27.6303 30.2454 29.4844C32.2295 30.5659 33.2216 31.1068 33.8714 31.0272C34.4739 30.9534 34.9295 30.6828 35.2827 30.1891C35.6636 29.6568 35.6636 28.5914 35.6636 26.4608V6.57401C35.6636 4.44343 35.6636 3.37813 35.2827 2.84572C34.9295 2.35201 34.4739 2.08147 33.8714 2.00768C33.2216 1.92809 32.2295 2.46891 30.2454 3.55055C26.8441 5.4046 22.4356 7.33646 18.8318 7.33646Z" stroke="#01B756" stroke-width="2.5" stroke-linecap="round" stroke-linejoin="round"/>
</svg>
