<svg width="80" height="80" viewBox="0 0 80 80" fill="none" xmlns="http://www.w3.org/2000/svg">
<g id="minimize action">
<circle id="Ellipse 18" cx="40" cy="40" r="40" fill="#D7521D"/>
<path id="Vector" d="M20 31.1111H20.4444C24.1781 31.1111 26.045 31.1111 27.471 30.3845C28.7255 29.7453 29.7453 28.7255 30.3845 27.471C31.1111 26.045 31.1111 24.1781 31.1111 20.4444V20M20 48.8889H20.4444C24.1781 48.8889 26.045 48.8889 27.471 49.6156C28.7255 50.2547 29.7453 51.2744 30.3845 52.5289C31.1111 53.9551 31.1111 55.8218 31.1111 59.5556V60M48.8889 20V20.4444C48.8889 24.1781 48.8889 26.045 49.6156 27.471C50.2547 28.7255 51.2745 29.7453 52.5289 30.3845C53.9549 31.1111 55.8218 31.1111 59.5556 31.1111H60M48.8889 60V59.5556C48.8889 55.8218 48.8889 53.9551 49.6156 52.5289C50.2547 51.2744 51.2745 50.2547 52.5289 49.6156C53.9549 48.8889 55.8218 48.8889 59.5556 48.8889H60" stroke="#E7E7E7" stroke-width="4" stroke-linecap="round" stroke-linejoin="round"/>
</g>
</svg>
