<svg width="39" height="39" viewBox="0 0 39 39" fill="none" xmlns="http://www.w3.org/2000/svg">
<path d="M18.625 7.25H19.3852C24.7178 7.25 27.3843 7.25 28.3963 8.20776C29.2713 9.03565 29.6589 10.2552 29.4229 11.4364C29.1495 12.8028 26.9727 14.3425 22.619 17.4219L15.506 22.4531C11.1523 25.5324 8.97548 27.0722 8.70222 28.4386C8.46601 29.6197 8.85373 30.8393 9.72863 31.6672C10.7408 32.625 13.4071 32.625 18.7398 32.625H20.375M12.5 7.25C12.5 10.1495 10.1495 12.5 7.25 12.5C4.35051 12.5 2 10.1495 2 7.25C2 4.35051 4.35051 2 7.25 2C10.1495 2 12.5 4.35051 12.5 7.25ZM37 31.75C37 34.6496 34.6496 37 31.75 37C28.8504 37 26.5 34.6496 26.5 31.75C26.5 28.8504 28.8504 26.5 31.75 26.5C34.6496 26.5 37 28.8504 37 31.75Z" stroke="#01B756" stroke-width="3" stroke-linecap="round" stroke-linejoin="round"/>
</svg>
