<svg width="34" height="36" viewBox="0 0 34 36" fill="none" xmlns="http://www.w3.org/2000/svg">
<path d="M24.1111 27.1232L33 17.9272M33 17.9272L24.1111 8.73128M33 17.9272H11.6667M17 27.1232C17 28.8337 17 29.6889 16.8183 30.3905C16.3252 32.2945 14.8875 33.7818 13.047 34.292C12.3688 34.48 11.5422 34.48 9.88889 34.48H9C6.51499 34.48 5.27246 34.48 4.29236 34.0599C2.98555 33.5001 1.94727 32.4258 1.40597 31.074C1 30.0598 1 28.7744 1 26.2036V9.65088C1 7.08 1 5.79457 1.40597 4.7806C1.94727 3.42865 2.98555 2.35451 4.29236 1.79451C5.27246 1.37451 6.51499 1.37451 9 1.37451H9.88889C11.5422 1.37451 12.3688 1.37451 13.047 1.56251C14.8875 2.07271 16.3252 3.55997 16.8183 5.46403C17 6.16568 17 7.02089 17 8.73128" stroke="#D7521D" stroke-width="2" stroke-linecap="round" stroke-linejoin="round"/>
</svg>
