<svg width="99" height="99" viewBox="0 0 99 99" fill="none" xmlns="http://www.w3.org/2000/svg">
<path id="decor" d="M28.3723 6.28219L30.3526 6.00223L28.3723 6.2822L32.8232 37.7655L4.25626 51.7275C1.64527 53.0036 2.19259 56.8753 5.05504 57.3776L36.3729 62.8734L40.8238 94.3567C41.2306 97.2342 45.082 97.9101 46.4443 95.343L61.3488 67.2563L92.6666 72.752C95.529 73.2543 97.362 69.8003 95.3414 67.7114L73.2351 44.8571L88.1396 16.7704C89.5019 14.2033 86.7834 11.3927 84.1723 12.6688L55.6054 26.6308L33.4991 3.77651L32.0615 5.167L33.4991 3.7765C31.4786 1.68765 27.9655 3.40462 28.3723 6.28219ZM72.8946 45.4989L72.8957 45.4967C72.8953 45.4974 72.8949 45.4982 72.8946 45.4989Z" fill="#DF8600" stroke="#E7E7E7" stroke-width="4"/>
</svg>
