<svg width="99" height="99" viewBox="0 0 99 99" fill="none" xmlns="http://www.w3.org/2000/svg">
<path d="M28.3723 6.28268L30.3526 6.00272L28.3723 6.28268L32.8232 37.766L4.25626 51.7279C1.64527 53.0041 2.19259 56.8758 5.05504 57.3781L36.3729 62.8739L40.8238 94.3572C41.2306 97.2347 45.082 97.9106 46.4443 95.3435L61.3488 67.2567L92.6666 72.7525C95.529 73.2548 97.362 69.8008 95.3414 67.7119L73.2351 44.8576L88.1396 16.7709C89.5019 14.2038 86.7834 11.3932 84.1723 12.6693L55.6054 26.6313L33.4991 3.777L32.0615 5.16749L33.4991 3.77699C31.4786 1.68814 27.9655 3.40511 28.3723 6.28268ZM72.8946 45.4994L72.8957 45.4972C72.8953 45.4979 72.8949 45.4987 72.8946 45.4994Z" fill="#01B756" stroke="#E7E7E7" stroke-width="4"/>
</svg>
