<svg width="36" height="37" viewBox="0 0 36 37" fill="none" xmlns="http://www.w3.org/2000/svg">
<path d="M9.66683 21.9167V28.75M26.3335 18.5V28.75M18.0002 11.6667V28.75M34.6668 9.61669V27.3834C34.6668 30.2537 34.6668 31.6887 33.9856 32.7851C33.3864 33.7495 32.4304 34.5334 31.2543 35.0247C29.9173 35.5834 28.1673 35.5834 24.6668 35.5834H11.3335C7.83316 35.5834 6.083 35.5834 4.74606 35.0247C3.57004 34.5334 2.61391 33.7495 2.0147 32.7851C1.3335 31.6887 1.3335 30.2537 1.3335 27.3834V9.61669C1.3335 6.74641 1.3335 5.31128 2.0147 4.21499C2.61391 3.25065 3.57004 2.46663 4.74606 1.97528C6.083 1.41669 7.83316 1.41669 11.3335 1.41669H24.6668C28.1673 1.41669 29.9173 1.41669 31.2543 1.97528C32.4304 2.46663 33.3864 3.25065 33.9856 4.21499C34.6668 5.31128 34.6668 6.74641 34.6668 9.61669Z" stroke="#D7521D" stroke-width="2" stroke-linecap="round" stroke-linejoin="round"/>
</svg>
