<svg width="196" height="62" viewBox="0 0 196 62" fill="none" xmlns="http://www.w3.org/2000/svg">
<g id="icon &#38; detail">
<circle id="Ellipse 17" cx="98" cy="31" r="30" stroke="#545456" stroke-opacity="0.15" stroke-width="1.2"/>
<path id="Line 8" d="M0.333333 31C0.333333 32.4728 1.52724 33.6667 3 33.6667C4.47276 33.6667 5.66667 32.4728 5.66667 31C5.66667 29.5272 4.47276 28.3333 3 28.3333C1.52724 28.3333 0.333333 29.5272 0.333333 31ZM67 31.5C67.2761 31.5 67.5 31.2761 67.5 31C67.5 30.7239 67.2761 30.5 67 30.5V31.5ZM3 31.5H67V30.5H3V31.5Z" fill="#545456" fill-opacity="0.15"/>
<path id="Line 9" d="M195.667 30.9942C195.663 29.5215 194.467 28.3301 192.994 28.3333C191.521 28.3365 190.33 29.533 190.333 31.0058C190.337 32.4785 191.533 33.6699 193.006 33.6667C194.479 33.6635 195.67 32.467 195.667 30.9942ZM128.999 30.6388C128.723 30.6394 128.5 30.8638 128.5 31.1399C128.501 31.4161 128.725 31.6394 129.001 31.6388L128.999 30.6388ZM192.999 30.5L128.999 30.6388L129.001 31.6388L193.001 31.5L192.999 30.5Z" fill="#545456" fill-opacity="0.15"/>
<path id="car icon" d="M106.75 28.5V23.75C106.75 22.3499 106.75 21.6498 106.477 21.115C106.238 20.6446 105.855 20.2622 105.385 20.0225C104.85 19.75 104.15 19.75 102.75 19.75H93.25C91.8499 19.75 91.1498 19.75 90.615 20.0225C90.1446 20.2622 89.7622 20.6446 89.5225 21.115C89.25 21.6498 89.25 22.3499 89.25 23.75V28.5M89.25 27.25H85.5V26M106.75 27.25H110.5V26M90.5 32.875H90.5125M105.5 32.875H105.513M91.5 28.5H104.5C106.6 28.5 107.65 28.5 108.452 28.9087C109.158 29.2682 109.732 29.8419 110.091 30.5475C110.5 31.3497 110.5 32.3998 110.5 34.5V38.5C110.5 39.6649 110.5 40.2472 110.31 40.7067C110.056 41.3192 109.569 41.806 108.957 42.0597C108.497 42.25 107.915 42.25 106.75 42.25H106C105.535 42.25 105.303 42.25 105.109 42.2193C104.039 42.0498 103.2 41.2109 103.031 40.1411C103 39.9468 103 39.7145 103 39.25C103 39.1339 103 39.0758 102.992 39.0273C102.95 38.7598 102.74 38.55 102.473 38.5078C102.424 38.5 102.366 38.5 102.25 38.5H93.75C93.6339 38.5 93.5758 38.5 93.5272 38.5078C93.2598 38.55 93.05 38.7598 93.0077 39.0273C93 39.0758 93 39.1339 93 39.25C93 39.7145 93 39.9468 92.9692 40.1411C92.7998 41.2109 91.9608 42.0498 90.8911 42.2193C90.6968 42.25 90.4645 42.25 90 42.25H89.25C88.0852 42.25 87.5027 42.25 87.0433 42.0597C86.4307 41.806 85.944 41.3192 85.6903 40.7067C85.5 40.2472 85.5 39.6649 85.5 38.5V34.5C85.5 32.3998 85.5 31.3497 85.9087 30.5475C86.2683 29.8419 86.8419 29.2682 87.5475 28.9087C88.3497 28.5 89.3998 28.5 91.5 28.5ZM91.125 32.875C91.125 33.2201 90.8452 33.5 90.5 33.5C90.1548 33.5 89.875 33.2201 89.875 32.875C89.875 32.5299 90.1548 32.25 90.5 32.25C90.8452 32.25 91.125 32.5299 91.125 32.875ZM106.125 32.875C106.125 33.2201 105.845 33.5 105.5 33.5C105.155 33.5 104.875 33.2201 104.875 32.875C104.875 32.5299 105.155 32.25 105.5 32.25C105.845 32.25 106.125 32.5299 106.125 32.875Z" stroke="#01B756" stroke-width="2.1" stroke-linecap="round" stroke-linejoin="round"/>
</g>
</svg>
